<svg width="25" height="25" viewBox="0 0 25 25" fill="none" xmlns="http://www.w3.org/2000/svg">
<path d="M9.37516 19.7916C4.16683 21.3541 4.16683 17.1874 2.0835 16.6666M16.6668 22.9166V18.8853C16.7059 18.3886 16.6388 17.8893 16.47 17.4205C16.3011 16.9518 16.0345 16.5243 15.6877 16.1666C18.9585 15.802 22.396 14.5624 22.396 8.87491C22.3957 7.42057 21.8363 6.022 20.8335 4.96866C21.3083 3.69628 21.2748 2.28986 20.7397 1.04158C20.7397 1.04158 19.5106 0.676998 16.6668 2.58325C14.2793 1.93619 11.7627 1.93619 9.37516 2.58325C6.53141 0.676998 5.30225 1.04158 5.30225 1.04158C4.76722 2.28986 4.73365 3.69628 5.2085 4.96866C4.19821 6.02981 3.63821 7.44102 3.646 8.90616C3.646 14.552 7.0835 15.7916 10.3543 16.1978C10.0116 16.552 9.74731 16.9743 9.57861 17.4373C9.40991 17.9004 9.34059 18.3937 9.37516 18.8853V22.9166" stroke="black" stroke-width="2" stroke-linecap="round" stroke-linejoin="round"/>
</svg>
