<svg width="25" height="25" viewBox="0 0 25 25" fill="none" xmlns="http://www.w3.org/2000/svg">
<path d="M16.6665 8.33325C18.3241 8.33325 19.9138 8.99173 21.0859 10.1638C22.258 11.3359 22.9165 12.9256 22.9165 14.5833V21.8749H18.7498V14.5833C18.7498 14.0307 18.5303 13.5008 18.1396 13.1101C17.7489 12.7194 17.219 12.4999 16.6665 12.4999C16.114 12.4999 15.5841 12.7194 15.1934 13.1101C14.8027 13.5008 14.5832 14.0307 14.5832 14.5833V21.8749H10.4165V14.5833C10.4165 12.9256 11.075 11.3359 12.2471 10.1638C13.4192 8.99173 15.0089 8.33325 16.6665 8.33325Z" stroke="black" stroke-width="2" stroke-linecap="round" stroke-linejoin="round"/>
<path d="M6.25016 9.375H2.0835V21.875H6.25016V9.375Z" stroke="black" stroke-width="2" stroke-linecap="round" stroke-linejoin="round"/>
<path d="M4.16683 6.24992C5.31742 6.24992 6.25016 5.31718 6.25016 4.16659C6.25016 3.01599 5.31742 2.08325 4.16683 2.08325C3.01624 2.08325 2.0835 3.01599 2.0835 4.16659C2.0835 5.31718 3.01624 6.24992 4.16683 6.24992Z" stroke="black" stroke-width="2" stroke-linecap="round" stroke-linejoin="round"/>
</svg>
